<svg width="16" height="17" viewBox="0 0 16 17" fill="none" xmlns="http://www.w3.org/2000/svg">
<path fillRule="evenodd" clipRule="evenodd" d="M3.75 3.5H7.75C7.33579 3.5 7 3.83579 7 4.25V5H4.5V4.25C4.5 3.83579 4.16421 3.5 3.75 3.5ZM3 5V4.25C3 3.83579 3.33579 3.5 3.75 3.5H1C0.447715 3.5 0 3.94772 0 4.5V12.5C0 13.0523 0.447715 13.5 1 13.5H15C15.5523 13.5 16 13.0523 16 12.5V4.5C16 3.94772 15.5523 3.5 15 3.5H11.75H7.75C8.16421 3.5 8.5 3.83579 8.5 4.25V5H7V7.25C7 7.66421 7.33579 8 7.75 8C8.16421 8 8.5 7.66421 8.5 7.25V5H11V7.25C11 7.66421 11.3358 8 11.75 8C12.1642 8 12.5 7.66421 12.5 7.25V5H14.5V12H1.5V5H3ZM3 5H4.5V7.25C4.5 7.66421 4.16421 8 3.75 8C3.33579 8 3 7.66421 3 7.25V5ZM12.5 5V4.25C12.5 3.83579 12.1642 3.5 11.75 3.5C11.3358 3.5 11 3.83579 11 4.25V5H12.5Z" fill="white" fill-opacity="0.01"/>
<mask id="mask0_2569_7435" style="mask-type:luminance" maskUnits="userSpaceOnUse" x="0" y="3" width="16" height="11">
<path fillRule="evenodd" clipRule="evenodd" d="M3.75 3.5H7.75C7.33579 3.5 7 3.83579 7 4.25V5H4.5V4.25C4.5 3.83579 4.16421 3.5 3.75 3.5ZM3 5V4.25C3 3.83579 3.33579 3.5 3.75 3.5H1C0.447715 3.5 0 3.94772 0 4.5V12.5C0 13.0523 0.447715 13.5 1 13.5H15C15.5523 13.5 16 13.0523 16 12.5V4.5C16 3.94772 15.5523 3.5 15 3.5H11.75H7.75C8.16421 3.5 8.5 3.83579 8.5 4.25V5H7V7.25C7 7.66421 7.33579 8 7.75 8C8.16421 8 8.5 7.66421 8.5 7.25V5H11V7.25C11 7.66421 11.3358 8 11.75 8C12.1642 8 12.5 7.66421 12.5 7.25V5H14.5V12H1.5V5H3ZM3 5H4.5V7.25C4.5 7.66421 4.16421 8 3.75 8C3.33579 8 3 7.66421 3 7.25V5ZM12.5 5V4.25C12.5 3.83579 12.1642 3.5 11.75 3.5C11.3358 3.5 11 3.83579 11 4.25V5H12.5Z" fill="white"/>
</mask>
<g mask="url(#mask0_2569_7435)">
<rect y="0.5" width="16" height="16" fill="white"/>
</g>
</svg>
