<svg width="16" height="17" viewBox="0 0 16 17" fill="none" xmlns="http://www.w3.org/2000/svg">
<path fillRule="evenodd" clipRule="evenodd" d="M15.7179 4.04541L13.591 3.04541C13.3269 2.92138 13.0103 3.02222 12.8785 3.26903C12.7468 3.51609 12.8551 3.81641 13.1187 3.93994L13.9287 4.31928L13.9189 4.34331C13.8994 4.39054 13.879 4.44014 13.879 4.49269C13.879 5.14369 14.4 5.6935 14.9333 5.90053V11.9927C14.9333 12.2683 14.694 12.4927 14.4 12.4927C14.106 12.4927 13.8667 12.2683 13.8667 11.9927V7.99269C13.8667 6.78547 12.8 5.77553 11.7333 5.54322V2.49269C11.7333 1.38991 10.8018 0.5 9.62547 0.5H3.22547C2.04917 0.5 1.06667 1.38991 1.06667 2.49269V13.6836L0.2948 14.0454C0.114067 14.1301 0 14.3032 0 14.4927V15.9927C0 16.2688 0.264267 16.5 0.5588 16.5H12.2921C12.5867 16.5 12.8 16.2688 12.8 15.9927V14.4927C12.8 14.3032 12.6859 14.1301 12.5052 14.0454L11.7333 13.6836V6.58484C12.2667 6.79187 12.8 7.34169 12.8 7.99269V11.9927C12.8 12.8198 13.5177 13.4927 14.4 13.4927C15.2823 13.4927 16 12.8198 16 11.9927V4.49269C16 4.30322 15.8987 4.13013 15.7179 4.04541ZM11.7333 15.5H1.06667V14.8018L1.83853 14.4399C2.01927 14.3552 2.13333 14.1821 2.13333 13.9927V2.49266C2.13333 1.94116 2.63717 1.5 3.22547 1.5H9.62547C10.2137 1.5 10.6667 1.94116 10.6667 2.49269V13.9927C10.6667 14.1822 10.7807 14.3553 10.9615 14.44L11.7333 14.8018V15.5ZM9.6 3.5C9.6 3.22384 9.36123 3 9.06667 3H3.73333C3.43877 3 3.2 3.22384 3.2 3.5V7.5C3.2 7.77616 3.43877 8 3.73333 8H9.06667C9.36123 8 9.6 7.77616 9.6 7.5V3.5ZM8.53333 7H4.26667V4H8.53333V7Z" fill="white" fill-opacity="0.01"/>
<mask id="mask0_2569_7480" style="mask-type:luminance" maskUnits="userSpaceOnUse" x="0" y="0" width="16" height="17">
<path fillRule="evenodd" clipRule="evenodd" d="M15.7179 4.04541L13.591 3.04541C13.3269 2.92138 13.0103 3.02222 12.8785 3.26903C12.7468 3.51609 12.8551 3.81641 13.1187 3.93994L13.9287 4.31928L13.9189 4.34331C13.8994 4.39054 13.879 4.44014 13.879 4.49269C13.879 5.14369 14.4 5.6935 14.9333 5.90053V11.9927C14.9333 12.2683 14.694 12.4927 14.4 12.4927C14.106 12.4927 13.8667 12.2683 13.8667 11.9927V7.99269C13.8667 6.78547 12.8 5.77553 11.7333 5.54322V2.49269C11.7333 1.38991 10.8018 0.5 9.62547 0.5H3.22547C2.04917 0.5 1.06667 1.38991 1.06667 2.49269V13.6836L0.2948 14.0454C0.114067 14.1301 0 14.3032 0 14.4927V15.9927C0 16.2688 0.264267 16.5 0.5588 16.5H12.2921C12.5867 16.5 12.8 16.2688 12.8 15.9927V14.4927C12.8 14.3032 12.6859 14.1301 12.5052 14.0454L11.7333 13.6836V6.58484C12.2667 6.79187 12.8 7.34169 12.8 7.99269V11.9927C12.8 12.8198 13.5177 13.4927 14.4 13.4927C15.2823 13.4927 16 12.8198 16 11.9927V4.49269C16 4.30322 15.8987 4.13013 15.7179 4.04541ZM11.7333 15.5H1.06667V14.8018L1.83853 14.4399C2.01927 14.3552 2.13333 14.1821 2.13333 13.9927V2.49266C2.13333 1.94116 2.63717 1.5 3.22547 1.5H9.62547C10.2137 1.5 10.6667 1.94116 10.6667 2.49269V13.9927C10.6667 14.1822 10.7807 14.3553 10.9615 14.44L11.7333 14.8018V15.5ZM9.6 3.5C9.6 3.22384 9.36123 3 9.06667 3H3.73333C3.43877 3 3.2 3.22384 3.2 3.5V7.5C3.2 7.77616 3.43877 8 3.73333 8H9.06667C9.36123 8 9.6 7.77616 9.6 7.5V3.5ZM8.53333 7H4.26667V4H8.53333V7Z" fill="white"/>
</mask>
<g mask="url(#mask0_2569_7480)">
<rect y="0.5" width="16" height="16" fill="white"/>
</g>
</svg>
