<svg width="50" height="51" viewBox="0 0 50 51" fill="none" xmlns="http://www.w3.org/2000/svg">
<path d="M24.2821 26.3212L15.9453 17.9844" stroke="white" strokeWidth="2" strokeLinecap="round" strokeLinejoin="round"/>
<path d="M23.7422 10.1875L32.079 18.5243" stroke="white" strokeWidth="2" strokeLinecap="round" strokeLinejoin="round"/>
<path d="M6.24219 44.2569H28.3055" stroke="white" strokeWidth="2" strokeLinecap="round" strokeLinejoin="round"/>
<path d="M8.125 44.2565L9.26089 40.8551C9.82688 39.1558 11.4152 38.008 13.2063 38.0039H21.3555C23.152 38.0017 24.7478 39.1507 25.3155 40.8551L26.443 44.2565" stroke="white" strokeWidth="2" strokeLinecap="round" strokeLinejoin="round"/>
<path fillRule="evenodd" clipRule="evenodd" d="M18.521 15.7015L13.9358 19.3592C13.088 20.0373 12.5683 21.0437 12.5063 22.1275C12.4442 23.2113 12.8457 24.2704 13.6106 25.0408L17.1038 28.5506C17.8624 29.3131 18.9099 29.7165 19.9841 29.6596C21.0582 29.6027 22.0573 29.091 22.7311 28.2525L26.4326 23.6548C27.3084 22.5659 28.3009 21.5762 29.3922 20.7035L33.9775 17.0458C34.8253 16.3677 35.345 15.3613 35.407 14.2775C35.469 13.1937 35.0675 12.1346 34.3026 11.3642L30.8157 7.85652C30.0571 7.09394 29.0096 6.6906 27.9354 6.74749C26.8613 6.80438 25.8622 7.31611 25.1884 8.15456L21.4827 12.7523C20.6067 13.8411 19.6135 14.8301 18.521 15.7015Z" stroke="white" strokeWidth="2" strokeLinecap="round" strokeLinejoin="round"/>
<path d="M29.958 20.2617L42.3048 30.7098C43.4798 31.7082 44.0025 33.2769 43.6611 34.7805C43.3198 36.2841 42.171 37.4733 40.6801 37.8665C39.1892 38.2597 37.6034 37.7916 36.565 36.6519L25.6562 24.6385" stroke="white" strokeWidth="2" strokeLinecap="round" strokeLinejoin="round"/>
</svg>
