<svg width="24" height="24" viewBox="0 0 24 24" fill="none" xmlns="http://www.w3.org/2000/svg">
<path d="M22.0028 9L19.3828 10" stroke="white" strokeWidth="1.5" strokeLinecap="round" strokeLinejoin="round"/>
<path d="M4.63 10L2 9" stroke="white" strokeWidth="1.5" strokeLinecap="round" strokeLinejoin="round"/>
<path d="M18.25 14H15.75" stroke="white" strokeWidth="1.5" strokeLinecap="round" strokeLinejoin="round"/>
<path d="M8.25 14H5.75" stroke="white" strokeWidth="1.5" strokeLinecap="round" strokeLinejoin="round"/>
<path d="M19.377 10L18.538 5.988C18.295 4.83 17.274 4 16.09 4H8.01C6.849 4 5.84 4.8 5.576 5.931L4.625 10" stroke="white" strokeWidth="1.5" strokeLinecap="round" strokeLinejoin="round"/>
<path fillRule="evenodd" clipRule="evenodd" d="M3.25 20H5.5C6.328 20 7 19.328 7 18.5V17.5H17V18.5C17 19.328 17.672 20 18.5 20H20.75C21.44 20 22 19.44 22 18.75V13C22 11.343 20.657 10 19 10H5C3.343 10 2 11.343 2 13V18.75C2 19.44 2.56 20 3.25 20Z" stroke="white" strokeWidth="1.5" strokeLinecap="round" strokeLinejoin="round"/>
</svg>
