<svg width="18" height="18" viewBox="0 0 18 18" fill="none" xmlns="http://www.w3.org/2000/svg">
<path d="M11.258 2.25391V7.49859" stroke="white" strokeLinecap="round" strokeLinejoin="round"/>
<path d="M6.75016 3.58203V14.2515" stroke="white" strokeLinecap="round" strokeLinejoin="round"/>
<path d="M15.7556 8.25038V4.20844C15.7556 3.88535 15.549 3.59849 15.2424 3.4964L11.728 2.32291C11.4199 2.22049 11.0869 2.22049 10.7788 2.32291L7.22609 3.5084C6.91805 3.61109 6.585 3.61109 6.27695 3.5084L3.23743 2.49548C3.00861 2.41927 2.7571 2.4577 2.56147 2.59877C2.36585 2.73984 2.25001 2.96634 2.25001 3.20753V11.7153C2.24846 12.0011 2.40934 12.2629 2.66495 12.3906L6.08112 14.0983C6.50361 14.3096 7.00093 14.3096 7.42343 14.0983L8.25252 13.6796" stroke="white" strokeLinecap="round" strokeLinejoin="round"/>
<path fillRule="evenodd" clipRule="evenodd" d="M10.5 14.4455V12.0565C10.5003 11.7516 10.6645 11.4705 10.9299 11.3205L13.0871 10.1072C13.3436 9.96426 13.6559 9.96426 13.9124 10.1072L16.0726 11.3242C16.3382 11.474 16.5025 11.7553 16.5025 12.0603V14.4455C16.5023 14.7502 16.338 15.0312 16.0726 15.1808L13.9139 16.3933C13.6574 16.5366 13.345 16.5366 13.0886 16.3933L10.9314 15.1801C10.6653 15.0313 10.5003 14.7504 10.5 14.4455Z" stroke="white" strokeLinecap="round" strokeLinejoin="round"/>
<path d="M13.508 13.25V16.5011" stroke="white" strokeLinecap="round" strokeLinejoin="round"/>
<path d="M10.6172 11.6328L13.5029 13.2527L16.3893 11.6328" stroke="white" strokeLinecap="round" strokeLinejoin="round"/>
</svg>
