<svg width="42" height="40" viewBox="0 0 42 40" fill="none" xmlns="http://www.w3.org/2000/svg">
<path d="M20.9765 39.7354C9.53729 39.7354 0.230766 30.872 0.230766 19.9776C0.230766 9.08313 9.53729 0.21978 20.9765 0.21978C32.4156 0.21978 41.7222 9.08313 41.7222 19.9776C41.7222 30.872 32.4156 39.7354 20.9765 39.7354Z" fill="#EC0000"/>
<path d="M13.3697 28.9784C12.8976 28.9784 12.426 28.8067 12.0655 28.4638C11.3454 27.778 11.3454 26.6658 12.0655 25.9805L27.279 11.4914C27.9987 10.8056 29.1673 10.8056 29.8865 11.4914C30.6071 12.1776 30.6071 13.2894 29.8865 13.9752L14.673 28.4642C14.3134 28.8067 13.8418 28.9784 13.3697 28.9784Z" fill="white"/>
<path d="M28.5832 28.9784C28.1116 28.9784 27.6391 28.8067 27.2795 28.4638L12.066 13.9747C11.3459 13.2885 11.3459 12.1768 12.066 11.491C12.7865 10.8051 13.9538 10.8051 14.6739 11.491L29.8874 25.98C30.608 26.6658 30.608 27.778 29.8874 28.4634C29.5274 28.8067 29.0548 28.9784 28.5832 28.9784Z" fill="white"/>
</svg>
