<svg width="12" height="12" viewBox="0 0 12 12" fill="none" xmlns="http://www.w3.org/2000/svg">
<path fillRule="evenodd" clipRule="evenodd" d="M1.19038 10.6142C0.666202 10.6142 0.221152 10.2754 0.0622792 9.80485C0.051825 9.77868 0.0438235 9.75175 0.0382746 9.72443C0.0132946 9.62841 0 9.52768 0 9.42385V2.69038C0 2.03296 0.532955 1.5 1.19038 1.5H10.8096C11.467 1.5 12 2.03296 12 2.69038V9.18289C12 9.18321 12 9.18353 12 9.18384V9.42385C12 10.0813 11.467 10.6142 10.8096 10.6142H1.19038ZM11.0621 8.05125V2.69038C11.0621 2.55093 10.9491 2.43788 10.8096 2.43788H1.19038C1.05093 2.43788 0.937876 2.55093 0.937876 2.69038V8.52882L2.78294 6.68714C2.96613 6.5043 3.26281 6.50444 3.44582 6.68745L4.31663 7.55826L7.1113 4.7636C7.29443 4.58047 7.59134 4.58047 7.77447 4.7636L11.0621 8.05125ZM4.97981 8.22144L7.44289 5.75837L11.0621 9.37761V9.42385C11.0621 9.5633 10.9491 9.67635 10.8096 9.67635H1.19038C1.16759 9.67635 1.14551 9.67333 1.12451 9.66767L3.11392 7.68191L3.98504 8.55303L4.46601 9.03399C4.64914 9.21713 4.94605 9.21713 5.12918 9.03399C5.31232 8.85086 5.31232 8.55395 5.12918 8.37082L4.97981 8.22144ZM5.25797 5.79604C4.60527 6.44874 3.54704 6.44874 2.89434 5.79604C2.24164 5.14334 2.24164 4.08511 2.89434 3.43241C3.54704 2.77971 4.60527 2.77971 5.25797 3.43241C5.91067 4.08511 5.91067 5.14334 5.25797 5.79604ZM3.55752 4.09559C3.27108 4.38202 3.27108 4.84643 3.55752 5.13286C3.84395 5.4193 4.30836 5.4193 4.59479 5.13286C4.88123 4.84643 4.88123 4.38202 4.59479 4.09559C4.30836 3.80915 3.84395 3.80915 3.55752 4.09559Z" fill="white" fill-opacity="0.01"/>
<mask id="mask0_2570_3961" style="mask-type:luminance" maskUnits="userSpaceOnUse" x="0" y="1" width="12" height="10">
<path fillRule="evenodd" clipRule="evenodd" d="M1.19038 10.6142C0.666202 10.6142 0.221152 10.2754 0.0622792 9.80485C0.051825 9.77868 0.0438235 9.75175 0.0382746 9.72443C0.0132946 9.62841 0 9.52768 0 9.42385V2.69038C0 2.03296 0.532955 1.5 1.19038 1.5H10.8096C11.467 1.5 12 2.03296 12 2.69038V9.18289C12 9.18321 12 9.18353 12 9.18384V9.42385C12 10.0813 11.467 10.6142 10.8096 10.6142H1.19038ZM11.0621 8.05125V2.69038C11.0621 2.55093 10.9491 2.43788 10.8096 2.43788H1.19038C1.05093 2.43788 0.937876 2.55093 0.937876 2.69038V8.52882L2.78294 6.68714C2.96613 6.5043 3.26281 6.50444 3.44582 6.68745L4.31663 7.55826L7.1113 4.7636C7.29443 4.58047 7.59134 4.58047 7.77447 4.7636L11.0621 8.05125ZM4.97981 8.22144L7.44289 5.75837L11.0621 9.37761V9.42385C11.0621 9.5633 10.9491 9.67635 10.8096 9.67635H1.19038C1.16759 9.67635 1.14551 9.67333 1.12451 9.66767L3.11392 7.68191L3.98504 8.55303L4.46601 9.03399C4.64914 9.21713 4.94605 9.21713 5.12918 9.03399C5.31232 8.85086 5.31232 8.55395 5.12918 8.37082L4.97981 8.22144ZM5.25797 5.79604C4.60527 6.44874 3.54704 6.44874 2.89434 5.79604C2.24164 5.14334 2.24164 4.08511 2.89434 3.43241C3.54704 2.77971 4.60527 2.77971 5.25797 3.43241C5.91067 4.08511 5.91067 5.14334 5.25797 5.79604ZM3.55752 4.09559C3.27108 4.38202 3.27108 4.84643 3.55752 5.13286C3.84395 5.4193 4.30836 5.4193 4.59479 5.13286C4.88123 4.84643 4.88123 4.38202 4.59479 4.09559C4.30836 3.80915 3.84395 3.80915 3.55752 4.09559Z" fill="white"/>
</mask>
<g mask="url(#mask0_2570_3961)">
<rect width="12" height="12" fill="white"/>
</g>
</svg>
