<svg width="22" height="22" viewBox="0 0 22 22" fill="none" xmlns="http://www.w3.org/2000/svg">
<path fillRule="evenodd" clipRule="evenodd" d="M2.7487 14.667L8.21831 14.667C8.72457 14.667 9.13498 15.0774 9.13498 15.5837C9.13498 16.0899 8.72457 16.5003 8.21831 16.5003L2.7487 16.5003C2.24244 16.5003 1.83203 16.0899 1.83203 15.5837C1.83203 15.0774 2.24244 14.667 2.7487 14.667Z" fill="#fff"/>
<path fillRule="evenodd" clipRule="evenodd" d="M12.832 6.41667C12.832 5.91041 13.2424 5.5 13.7487 5.5H19.2487C19.755 5.5 20.1654 5.91041 20.1654 6.41667C20.1654 6.92293 19.755 7.33333 19.2487 7.33333H13.7487C13.2424 7.33333 12.832 6.92293 12.832 6.41667Z" fill="#fff"/>
<path fillRule="evenodd" clipRule="evenodd" d="M1.83203 6.41667C1.83203 5.91041 2.24244 5.5 2.7487 5.5H2.75786C3.26413 5.5 3.67453 5.91041 3.67453 6.41667C3.67453 6.92293 3.26413 7.33333 2.75786 7.33333H2.7487C2.24244 7.33333 1.83203 6.92293 1.83203 6.41667Z" fill="#fff"/>
<path fillRule="evenodd" clipRule="evenodd" d="M18.332 15.5837C18.332 15.0774 18.7424 14.667 19.2487 14.667H19.2579C19.7641 14.667 20.1745 15.0774 20.1745 15.5837C20.1745 16.0899 19.7641 16.5003 19.2579 16.5003H19.2487C18.7424 16.5003 18.332 16.0899 18.332 15.5837Z" fill="#fff"/>
<path fillRule="evenodd" clipRule="evenodd" d="M13.6866 13.7503C12.6873 13.7503 11.8685 14.5663 11.8685 15.5837C11.8685 16.601 12.6873 17.417 13.6866 17.417C14.686 17.417 15.5048 16.601 15.5048 15.5837C15.5048 14.5663 14.686 13.7503 13.6866 13.7503ZM10.0352 15.5837C10.0352 13.5634 11.6652 11.917 13.6866 11.917C15.7081 11.917 17.3381 13.5634 17.3381 15.5837C17.3381 17.6039 15.7081 19.2503 13.6866 19.2503C11.6652 19.2503 10.0352 17.6039 10.0352 15.5837Z" fill="#fff"/>
<path fillRule="evenodd" clipRule="evenodd" d="M8.21788 4.58333C7.21853 4.58333 6.39974 5.39935 6.39974 6.41667C6.39974 7.43398 7.21853 8.25 8.21788 8.25C9.21723 8.25 10.036 7.43398 10.036 6.41667C10.036 5.39935 9.21723 4.58333 8.21788 4.58333ZM4.56641 6.41667C4.56641 4.39642 6.19645 2.75 8.21788 2.75C10.2393 2.75 11.8694 4.39642 11.8694 6.41667C11.8694 8.43692 10.2393 10.0833 8.21788 10.0833C6.19645 10.0833 4.56641 8.43692 4.56641 6.41667Z" fill="#fff"/>
</svg>
