<svg width="24" height="25" viewBox="0 0 24 25" fill="none" xmlns="http://www.w3.org/2000/svg">
<path d="M4.21875 11.3906V21.3906" stroke="white" strokeWidth="1.5" strokeLinecap="round" strokeLinejoin="round"/>
<path d="M19.7812 11.3906V21.3906" stroke="white" strokeWidth="1.5" strokeLinecap="round" strokeLinejoin="round"/>
<path d="M14.2253 21.3887V16.9447C14.2253 15.7177 13.2303 14.7227 12.0033 14.7227C10.7763 14.7227 9.78125 15.7177 9.78125 16.9447V21.3887" stroke="white" strokeWidth="1.5" strokeLinecap="round" strokeLinejoin="round"/>
<path d="M2 21.3906H22" stroke="white" strokeWidth="1.5" strokeLinecap="round" strokeLinejoin="round"/>
<path fillRule="evenodd" clipRule="evenodd" d="M4.30059 11.3874C2.60259 11.3754 1.49559 9.69438 2.23159 8.24538L3.94659 4.86838C4.33759 4.09838 5.15959 3.60938 6.06159 3.60938H17.9376C18.8396 3.60938 19.6616 4.09838 20.0526 4.86838L21.7686 8.24538C22.5046 9.69438 21.3976 11.3754 19.6996 11.3874C18.2826 11.3874 17.1336 10.4194 17.1336 9.22438V9.17637C17.1336 10.3974 15.9846 11.3874 14.5676 11.3874C13.1506 11.3874 12.0016 10.3974 12.0016 9.17637C12.0016 10.3974 10.8526 11.3874 9.43559 11.3874C8.01859 11.3874 6.86959 10.3974 6.86959 9.17637V9.22438C6.86659 10.4194 5.71759 11.3874 4.30059 11.3874Z" stroke="white" strokeWidth="1.5" strokeLinecap="round" strokeLinejoin="round"/>
</svg>
