<svg width="16" height="16" viewBox="0 0 16 16" fill="none" xmlns="http://www.w3.org/2000/svg">
<path fillRule="evenodd" clipRule="evenodd" d="M12 2H13.5C14.3281 2 15 2.67188 15 3.5V14.5C15 15.3281 14.3281 16 13.5 16H2.5C1.67188 16 1 15.3281 1 14.5V3.5C1 2.67188 1.67188 2 2.5 2H4V0.375C4 0.16875 4.16875 0 4.375 0H5.625C5.83125 0 6 0.16875 6 0.375V2H10V0.375C10 0.16875 10.1687 0 10.375 0H11.625C11.8313 0 12 0.16875 12 0.375V2ZM2.6875 14.5H13.3125C13.4156 14.5 13.5 14.4156 13.5 14.3125V5H2.5V14.3125C2.5 14.4156 2.58438 14.5 2.6875 14.5Z" fill="white" fill-opacity="0.01"/>
<mask id="mask0_2569_7176" style="mask-type:luminance" maskUnits="userSpaceOnUse" x="1" y="0" width="14" height="16">
<path fillRule="evenodd" clipRule="evenodd" d="M12 2H13.5C14.3281 2 15 2.67188 15 3.5V14.5C15 15.3281 14.3281 16 13.5 16H2.5C1.67188 16 1 15.3281 1 14.5V3.5C1 2.67188 1.67188 2 2.5 2H4V0.375C4 0.16875 4.16875 0 4.375 0H5.625C5.83125 0 6 0.16875 6 0.375V2H10V0.375C10 0.16875 10.1687 0 10.375 0H11.625C11.8313 0 12 0.16875 12 0.375V2ZM2.6875 14.5H13.3125C13.4156 14.5 13.5 14.4156 13.5 14.3125V5H2.5V14.3125C2.5 14.4156 2.58438 14.5 2.6875 14.5Z" fill="white"/>
</mask>
<g mask="url(#mask0_2569_7176)">
<rect width="16" height="16" fill="#64748B"/>
</g>
</svg>
