<svg width="16" height="17" viewBox="0 0 16 17" fill="none" xmlns="http://www.w3.org/2000/svg">
<path fillRule="evenodd" clipRule="evenodd" d="M8 2.5C3.58167 2.5 0 6.08167 0 10.5C0 11.9667 0.395833 13.3406 1.085 14.5222C1.24083 14.7894 1.53778 14.9444 1.84722 14.9444H14.1528C14.4622 14.9444 14.7592 14.7894 14.915 14.5222C15.6042 13.3406 16 11.9667 16 10.5C16 6.08167 12.4183 2.5 8 2.5ZM2.10361 13.6111C1.59889 12.6564 1.33333 11.5867 1.33333 10.5C1.33333 6.82389 4.32389 3.83333 8 3.83333C11.6761 3.83333 14.6667 6.82389 14.6667 10.5C14.6667 11.5867 14.4011 12.6564 13.8964 13.6111H2.10361ZM8.66667 6.05556V9.74306C9.31778 10.0069 9.77778 10.6431 9.77806 11.3889C9.77806 11.7144 9.68417 12.0153 9.53139 12.2778H6.46889C6.31611 12.0153 6.22222 11.7144 6.22222 11.3889C6.22222 10.6433 6.68222 10.0069 7.33333 9.74306V6.05556C7.33333 5.6875 7.63194 5.38889 8 5.38889C8.36806 5.38889 8.66667 5.6875 8.66667 6.05556Z" fill="white" fill-opacity="0.01"/>
<mask id="mask0_2569_7468" style="mask-type:luminance" maskUnits="userSpaceOnUse" x="0" y="2" width="16" height="13">
<path fillRule="evenodd" clipRule="evenodd" d="M8 2.5C3.58167 2.5 0 6.08167 0 10.5C0 11.9667 0.395833 13.3406 1.085 14.5222C1.24083 14.7894 1.53778 14.9444 1.84722 14.9444H14.1528C14.4622 14.9444 14.7592 14.7894 14.915 14.5222C15.6042 13.3406 16 11.9667 16 10.5C16 6.08167 12.4183 2.5 8 2.5ZM2.10361 13.6111C1.59889 12.6564 1.33333 11.5867 1.33333 10.5C1.33333 6.82389 4.32389 3.83333 8 3.83333C11.6761 3.83333 14.6667 6.82389 14.6667 10.5C14.6667 11.5867 14.4011 12.6564 13.8964 13.6111H2.10361ZM8.66667 6.05556V9.74306C9.31778 10.0069 9.77778 10.6431 9.77806 11.3889C9.77806 11.7144 9.68417 12.0153 9.53139 12.2778H6.46889C6.31611 12.0153 6.22222 11.7144 6.22222 11.3889C6.22222 10.6433 6.68222 10.0069 7.33333 9.74306V6.05556C7.33333 5.6875 7.63194 5.38889 8 5.38889C8.36806 5.38889 8.66667 5.6875 8.66667 6.05556Z" fill="white"/>
</mask>
<g mask="url(#mask0_2569_7468)">
<rect y="0.5" width="16" height="16" fill="white"/>
</g>
</svg>
