<svg width="16" height="17" viewBox="0 0 16 17" fill="none" xmlns="http://www.w3.org/2000/svg">
<path fillRule="evenodd" clip-rule="evenodd" d="M14.051 10.6845L7.8317 10.6179L6.87724 8.35046C6.71749 7.97196 6.69753 7.63739 6.82488 7.47676C6.95267 7.31435 7.28148 7.25623 7.68793 7.32545L14.051 8.38818V10.6845ZM12.7438 15.1089L1.8946 12.1452C1.8307 11.851 1.78633 11.5506 1.76414 11.2502L1.52053 7.9977C1.39585 6.33771 1.92477 4.78066 3.00836 3.61276C4.09106 2.4462 5.60285 1.80323 7.26594 1.80323H7.79132C10.8198 1.80323 13.4759 4.08578 13.9663 7.05211L7.90225 6.03952C6.98861 5.88776 6.24226 6.11007 5.80164 6.66828C5.36146 7.22694 5.31664 8.00391 5.67606 8.85676L6.79648 11.5174C6.89809 11.757 7.13061 11.9141 7.38975 11.9163L14.0058 11.9882C13.8771 13.133 13.444 14.2046 12.7438 15.1089ZM15.3476 7.70262L15.3436 7.69862C15.151 3.65447 11.8506 0.5 7.79132 0.5H7.26594C5.23677 0.5 3.38553 1.29073 2.05301 2.72663C0.719602 4.16388 0.0690948 6.07058 0.22085 8.09487L0.464458 11.347C0.502175 11.8502 0.590033 12.3551 0.726702 12.8472C0.787049 13.0678 0.962322 13.2421 1.18286 13.3016L12.8081 16.4778C12.8649 16.4929 12.9217 16.5 12.9776 16.5C13.1649 16.5 13.3433 16.4197 13.4666 16.2795C14.662 14.923 15.3303 13.1858 15.3476 11.386L15.3547 7.83618L15.3476 7.70262Z" fill="white" fill-opacity="0.01"/>
<mask id="mask0_501_30520" style="mask-type:luminance" maskUnits="userSpaceOnUse" x="0" y="0" width="16" height="17">
<path fillRule="evenodd" clip-rule="evenodd" d="M14.051 10.6845L7.8317 10.6179L6.87724 8.35046C6.71749 7.97196 6.69753 7.63739 6.82488 7.47676C6.95267 7.31435 7.28148 7.25623 7.68793 7.32545L14.051 8.38818V10.6845ZM12.7438 15.1089L1.8946 12.1452C1.8307 11.851 1.78633 11.5506 1.76414 11.2502L1.52053 7.9977C1.39585 6.33771 1.92477 4.78066 3.00836 3.61276C4.09106 2.4462 5.60285 1.80323 7.26594 1.80323H7.79132C10.8198 1.80323 13.4759 4.08578 13.9663 7.05211L7.90225 6.03952C6.98861 5.88776 6.24226 6.11007 5.80164 6.66828C5.36146 7.22694 5.31664 8.00391 5.67606 8.85676L6.79648 11.5174C6.89809 11.757 7.13061 11.9141 7.38975 11.9163L14.0058 11.9882C13.8771 13.133 13.444 14.2046 12.7438 15.1089ZM15.3476 7.70262L15.3436 7.69862C15.151 3.65447 11.8506 0.5 7.79132 0.5H7.26594C5.23677 0.5 3.38553 1.29073 2.05301 2.72663C0.719602 4.16388 0.0690948 6.07058 0.22085 8.09487L0.464458 11.347C0.502175 11.8502 0.590033 12.3551 0.726702 12.8472C0.787049 13.0678 0.962322 13.2421 1.18286 13.3016L12.8081 16.4778C12.8649 16.4929 12.9217 16.5 12.9776 16.5C13.1649 16.5 13.3433 16.4197 13.4666 16.2795C14.662 14.923 15.3303 13.1858 15.3476 11.386L15.3547 7.83618L15.3476 7.70262Z" fill="white"/>
</mask>
<g mask="url(#mask0_501_30520)">
<rect y="0.5" width="16" height="16" fill="white"/>
</g>
</svg>
