<svg width="25" height="26" viewBox="0 0 25 26" fill="none" xmlns="http://www.w3.org/2000/svg">
<path d="M12.6501 13.3962L8.64844 9.39453" stroke="#00CD69" strokeWidth="1.5" strokeLinecap="round" strokeLinejoin="round"/>
<path d="M12.3906 5.65234L16.3923 9.65401" stroke="#00CD69" strokeWidth="1.5" strokeLinecap="round" strokeLinejoin="round"/>
<path d="M3.99219 22.0041H14.5826" stroke="#00CD69" strokeWidth="1.5" strokeLinecap="round" strokeLinejoin="round"/>
<path d="M4.89062 22.0052L5.43585 20.3725C5.70753 19.5568 6.46991 19.0059 7.32964 19.0039H11.2413C12.1036 19.0028 12.8696 19.5544 13.1421 20.3725L13.6833 22.0052" stroke="#00CD69" strokeWidth="1.5" strokeLinecap="round" strokeLinejoin="round"/>
<path fillRule="evenodd" clipRule="evenodd" d="M9.89009 8.30045L7.68917 10.0562C7.28223 10.3816 7.03277 10.8647 7.003 11.3849C6.97323 11.9052 7.16595 12.4136 7.53311 12.7833L9.20981 14.468C9.57394 14.8341 10.0768 15.0277 10.5924 15.0004C11.1079 14.973 11.5875 14.7274 11.9109 14.325L13.6877 12.118C14.108 11.5954 14.5844 11.1203 15.1083 10.7014L17.3092 8.94572C17.7161 8.62025 17.9656 8.13718 17.9953 7.61695C18.0251 7.09672 17.8324 6.58834 17.4652 6.21858L15.7915 4.53488C15.4274 4.16884 14.9246 3.97524 14.409 4.00254C13.8934 4.02985 13.4139 4.27548 13.0904 4.67794L11.3117 6.88486C10.8912 7.40746 10.4145 7.88219 9.89009 8.30045Z" stroke="#00CD69" strokeWidth="1.5" strokeLinecap="round" strokeLinejoin="round"/>
<path d="M15.3774 10.4883L21.3038 15.5034C21.8678 15.9826 22.1187 16.7356 21.9548 17.4573C21.791 18.179 21.2396 18.7499 20.524 18.9386C19.8083 19.1273 19.0471 18.9026 18.5487 18.3556L13.3125 12.5892" stroke="#00CD69" strokeWidth="1.5" strokeLinecap="round" strokeLinejoin="round"/>
</svg>
