<svg width="20" height="20" viewBox="0 0 20 20" fill="none" xmlns="http://www.w3.org/2000/svg">
<path d="M18.3318 7.5L16.1484 8.33333" stroke="#00CD69" strokeWidth="1.5" strokeLinecap="round" strokeLinejoin="round"/>
<path d="M3.85573 8.33333L1.66406 7.5" stroke="#00CD69" strokeWidth="1.5" strokeLinecap="round" strokeLinejoin="round"/>
<path d="M15.2083 11.6667H13.125" stroke="#00CD69" strokeWidth="1.5" strokeLinecap="round" strokeLinejoin="round"/>
<path d="M6.8724 11.6667H4.78906" stroke="#00CD69" strokeWidth="1.5" strokeLinecap="round" strokeLinejoin="round"/>
<path d="M16.1449 8.33203L15.4457 4.9887C15.2432 4.0237 14.3924 3.33203 13.4057 3.33203H6.6724C5.7049 3.33203 4.86406 3.9987 4.64406 4.9412L3.85156 8.33203" stroke="#00CD69" strokeWidth="1.5" strokeLinecap="round" strokeLinejoin="round"/>
<path fillRule="evenodd" clipRule="evenodd" d="M2.70573 16.6654H4.58073C5.27073 16.6654 5.83073 16.1054 5.83073 15.4154V14.582H14.1641V15.4154C14.1641 16.1054 14.7241 16.6654 15.4141 16.6654H17.2891C17.8641 16.6654 18.3307 16.1987 18.3307 15.6237V10.832C18.3307 9.4512 17.2116 8.33203 15.8307 8.33203H4.16406C2.78323 8.33203 1.66406 9.4512 1.66406 10.832V15.6237C1.66406 16.1987 2.13073 16.6654 2.70573 16.6654Z" stroke="#00CD69" strokeWidth="1.5" strokeLinecap="round" strokeLinejoin="round"/>
</svg>
