<svg width="197" height="46" viewBox="0 0 197 46" fill="none" xmlns="http://www.w3.org/2000/svg">
<path d="M97.9559 1.87092H91.875V3.683H93.8347V8.93254H95.9854V3.68574H97.9559V1.87092ZM102.107 1.87092H99.9756L97.3855 8.9298H99.569L99.9129 7.92766H102.17L102.517 8.9298H104.7L102.107 1.87092ZM101.692 6.41485H100.371C100.609 5.69825 100.756 5.21228 100.756 5.21228C100.893 4.77848 100.934 4.61924 101.051 4.13327C101.12 4.49557 101.211 4.85319 101.324 5.20405C101.324 5.20405 101.57 6.00576 101.698 6.41485H101.692ZM110.683 4.01521C110.664 2.55731 109.627 1.72266 107.833 1.72266C106.138 1.72266 104.995 2.60673 104.995 3.93559C104.995 5.14365 105.724 5.54175 106.728 5.8877C107.214 6.05792 108.426 6.35444 108.712 6.59331C108.753 6.62649 108.787 6.6682 108.81 6.71559C108.834 6.76297 108.847 6.81492 108.849 6.86787C108.849 7.22479 108.513 7.45267 107.97 7.45267C107.339 7.45267 106.916 7.22479 106.878 6.54114H104.719C104.738 8.1171 105.939 9.0808 107.902 9.0808C109.774 9.0808 110.969 8.14731 110.969 6.68117C110.969 5.21503 109.728 4.75926 108.554 4.44901C108.256 4.36939 107.056 4.20191 107.056 3.76537C107.056 3.49081 107.312 3.32882 107.765 3.32882C108.311 3.32882 108.652 3.57592 108.66 4.00423L110.683 4.01521ZM118.085 1.87092H115.937V4.24035H113.906V1.87092H111.747V8.93254H113.906V6.14578H115.937V8.93254H118.085V1.87092ZM126.022 1.87092H123.363L121.363 4.37763C121.384 3.76262 121.393 3.97128 121.393 3.29862V1.87092H119.269V8.93254H121.387V6.84865L122.018 6.18696L123.734 8.93254H126.423L123.478 4.61649L126.022 1.87092ZM132.725 1.87092H126.911V8.93254H132.826V7.13693H129.027V6.10734H132.37V4.46H129.027V3.5869H132.725V1.87092ZM140.176 1.87092H138.102V4.22113C138.102 4.77025 138.121 5.31936 138.162 5.84651C137.956 5.39108 137.725 4.94745 137.471 4.51765L135.967 1.87092H133.838V8.93254H135.918V6.48349C135.924 5.9436 135.901 5.4038 135.85 4.86634C136.016 5.23425 136.186 5.58019 136.396 5.92613L138.14 8.94627H140.2V1.87092H140.176ZM147.076 1.87092H140.995V3.683H142.957V8.93254H145.105V3.68574H147.076V1.87092Z" fill="#00CD69"/>
<path d="M94.7872 40.546H92.0278V41.0952H93.9684L91.875 43.6568V44.1839H94.8472V43.6348H92.6774L94.7872 41.0512V40.5433V40.546ZM97.986 40.546H97.3091L95.9117 44.1894H96.5667L96.9215 43.223H98.3571L98.701 44.1894H99.3834L97.986 40.546ZM98.1879 42.7425H97.0962L97.6612 41.2132L98.1879 42.7425ZM104.465 40.546H103.581L102.607 43.396L101.594 40.546H100.704V44.1894H101.305V41.3807L102.337 44.1894H102.855L103.862 41.3807V44.1894H104.465V40.546ZM107.741 40.4609C106.632 40.4609 105.994 41.2846 105.994 42.3664C105.994 43.503 106.695 44.2745 107.732 44.2745C108.77 44.2745 109.471 43.503 109.471 42.3664C109.471 41.2297 108.764 40.4609 107.741 40.4609ZM107.741 40.9963C108.412 40.9963 108.832 41.529 108.832 42.3691C108.832 43.2093 108.407 43.7419 107.741 43.7419C107.075 43.7419 106.632 43.2093 106.632 42.3691C106.632 41.529 107.069 40.9963 107.735 40.9963H107.741ZM113.958 40.546H113.347V43.2312L111.679 40.546H111.013V44.1894H111.613V41.5097L113.3 44.1894H113.958V40.546ZM117.318 40.546H116.641L115.243 44.1894H115.899L116.256 43.223H117.689L118.033 44.1894H118.723L117.318 40.546ZM117.52 42.7425H116.428L116.993 41.2132L117.52 42.7425ZM119.305 40.546L120.519 44.1894H121.226L122.468 40.546H121.821L120.885 43.4262L119.971 40.546H119.305ZM124.433 40.546H123.794V44.1894H124.433V40.546ZM129.122 40.546H128.41L127.457 42.1577L126.497 40.546H125.765L127.13 42.7425V44.1922H127.755V42.7425L129.122 40.546ZM134.916 40.546H134.24L132.842 44.1894H133.497L133.855 43.223H135.288L135.632 44.1894H136.314L134.916 40.546ZM135.118 42.7425H134.027L134.592 41.2132L135.118 42.7425ZM136.903 40.546L138.102 44.1894H138.808L140.05 40.546H139.403L138.467 43.4262L137.556 40.546H136.903ZM143.986 40.546H141.036V41.0952H142.196V44.1839H142.832V41.1007H143.986V40.5515V40.546ZM146.934 40.4609C145.826 40.4609 145.184 41.2846 145.184 42.3664C145.184 43.503 145.886 44.2745 146.923 44.2745C147.96 44.2745 148.661 43.503 148.661 42.3664C148.661 41.2297 147.954 40.4609 146.934 40.4609ZM146.934 40.9963C147.605 40.9963 148.025 41.529 148.025 42.3691C148.025 43.2093 147.6 43.7419 146.934 43.7419C146.268 43.7419 145.826 43.2093 145.826 42.3691C145.826 41.529 146.257 40.9963 146.917 40.9963H146.934ZM153.039 40.546V44.1894H154.884C155.031 44.2026 155.179 44.1844 155.319 44.1362C155.458 44.0879 155.586 44.0106 155.694 43.9094C155.802 43.8081 155.887 43.6851 155.945 43.5484C156.002 43.4117 156.031 43.2643 156.028 43.1159C156.039 42.9108 155.976 42.7086 155.851 42.5459C155.727 42.3832 155.548 42.2708 155.348 42.2291C155.496 42.1647 155.622 42.0575 155.71 41.9212C155.798 41.7849 155.844 41.6255 155.842 41.4631C155.842 40.914 155.452 40.546 154.669 40.546H153.039ZM153.659 41.0622H154.543C154.906 41.0622 155.236 41.1089 155.236 41.5647C155.236 41.9326 154.996 42.0671 154.524 42.0671H153.659V41.0622ZM153.659 42.5256H154.6C155.013 42.5256 155.392 42.597 155.392 43.0994C155.392 43.6019 155.037 43.6678 154.611 43.6678H153.659V42.5256ZM159.156 40.4609C158.048 40.4609 157.406 41.2846 157.406 42.3664C157.406 43.503 158.108 44.2745 159.145 44.2745C160.182 44.2745 160.883 43.503 160.883 42.3664C160.883 41.2297 160.176 40.4609 159.156 40.4609ZM159.156 40.9963C159.827 40.9963 160.247 41.529 160.247 42.3691C160.247 43.2093 159.822 43.7419 159.156 43.7419C158.49 43.7419 158.048 43.2093 158.048 42.3691C158.048 41.529 158.479 40.9963 159.139 40.9963H159.156ZM165.067 40.546H162.281V41.0952H164.221L162.12 43.6623V44.1894H165.092V43.6403H162.938L165.048 41.0567V40.5488L165.067 40.546ZM168.173 40.4609C167.065 40.4609 166.424 41.2846 166.424 42.3664C166.424 43.503 167.125 44.2745 168.162 44.2745C169.2 44.2745 169.901 43.503 169.901 42.3664C169.901 41.2297 169.194 40.4609 168.173 40.4609ZM168.173 40.9963C168.845 40.9963 169.265 41.529 169.265 42.3691C169.265 43.2093 168.837 43.7419 168.173 43.7419C167.51 43.7419 167.065 43.2093 167.065 42.3691C167.065 41.529 167.496 40.9963 168.157 40.9963H168.173ZM171.449 40.546V44.1894H172.082V42.6849H172.925C173.539 42.6849 173.681 42.888 173.717 43.4619C173.705 43.71 173.745 43.9578 173.834 44.1894H174.516C174.369 44.0247 174.358 43.7172 174.322 43.2834C174.292 42.91 174.246 42.5558 173.777 42.4597C173.961 42.3982 174.12 42.2771 174.228 42.1151C174.337 41.9532 174.389 41.7596 174.377 41.5647C174.377 40.8124 173.809 40.5515 173.157 40.5515L171.449 40.546ZM172.082 41.0705H173.001C173.381 41.0705 173.752 41.1473 173.752 41.6196C173.752 42.1412 173.337 42.2044 172.933 42.2044H172.095L172.082 41.0705Z" fill="white"/>
<path fillRule="evenodd" clipRule="evenodd" d="M196.274 13.2734H188.034L184.772 18.188L181.459 13.2789H173.219L180.687 24.3409L172.758 36.2759H180.998L184.841 30.4937L188.76 36.2759H196.997L188.926 24.3409L196.274 13.2734Z" fill="#00CD69"/>
<path d="M98.8757 13.2734H91.875V36.2759H98.8757V13.2734ZM123.221 13.2734H116.477L116.51 20.9309C116.51 22.7072 116.573 24.4836 116.701 26.2298C116.036 24.7481 115.285 23.3069 114.452 21.9138L109.506 13.2734H102.568V36.2759H109.345L109.315 28.2972C109.336 26.539 109.26 24.781 109.089 23.0312C109.635 24.2255 110.181 25.3567 110.825 26.4879L116.51 36.2759H123.221V13.2734ZM148.82 24.7115C148.82 17.5373 144.292 13.2734 137.288 13.2734H127.075V36.2759H137.16C144.644 36.2759 148.82 32.3662 148.82 24.7115ZM133.948 19.0556H136.035C139.633 19.0556 141.849 20.9309 141.849 24.8406C141.849 28.2972 140.149 30.4607 136.712 30.4607H133.95V19.0556H133.948Z" fill="#00CD69"/>
<path d="M170.106 13.2734H151.156V36.2759H170.428V30.4278H158.061V27.07H168.981V21.7381H158.061V18.8634H170.106V13.2734Z" fill="#00CD69"/>
<path d="M64.4097 17.9141H69.6391C69.6391 17.9141 64.7263 21.9858 62.9141 26.9333C62.9141 26.9333 64.0986 21.044 65.9027 18.9711L64.4097 17.9141Z" fill="#00CD69"/>
<path d="M17.2763 17.9106H12.0469C12.0469 17.9106 16.9597 21.9823 18.7692 26.9298C18.7692 26.9298 17.5874 21.0405 15.7833 18.9676L17.2763 17.9023V17.9106Z" fill="#00CD69"/>
<path d="M12.7934 31.9021C12.5332 31.9021 12.2788 31.8245 12.0625 31.6791C11.8462 31.5337 11.6775 31.327 11.578 31.0852C11.4784 30.8434 11.4523 30.5773 11.5031 30.3206C11.5539 30.0639 11.6792 29.8281 11.8631 29.643C12.0471 29.4579 12.2815 29.3319 12.5367 29.2808C12.7919 29.2297 13.0564 29.2559 13.2968 29.3561C13.5372 29.4563 13.7426 29.6259 13.8872 29.8435C14.0317 30.0611 14.1089 30.317 14.1089 30.5787C14.1089 30.9297 13.9703 31.2663 13.7236 31.5145C13.4769 31.7627 13.1423 31.9021 12.7934 31.9021ZM8.85222 30.6337C8.59191 30.6342 8.3373 30.557 8.1206 30.412C7.90391 30.2669 7.73487 30.0604 7.63488 29.8186C7.53489 29.5769 7.50845 29.3107 7.5589 29.0538C7.60935 28.7969 7.73443 28.5608 7.9183 28.3755C8.10217 28.1901 8.33657 28.0638 8.59183 28.0125C8.8471 27.9613 9.11175 27.9873 9.35229 28.0874C9.59283 28.1875 9.79845 28.3571 9.94312 28.5748C10.0878 28.7925 10.165 29.0484 10.165 29.3103C10.165 29.6608 10.0268 29.997 9.78068 30.2451C9.53456 30.4932 9.20065 30.6329 8.85222 30.6337ZM21.8957 32.929L19.9851 29.3597C19.8813 29.1647 19.7338 28.9967 19.5543 28.869C19.3747 28.7413 19.1681 28.6574 18.9507 28.6239C16.83 28.2917 10.2851 27.1852 5.22767 25.428C5.1602 25.4038 5.08786 25.3966 5.01696 25.4069C4.94607 25.4173 4.87876 25.4449 4.8209 25.4874C4.76305 25.5299 4.7164 25.586 4.68502 25.6508C4.65364 25.7155 4.63848 25.7871 4.64087 25.8591V28.569C4.64015 29.0657 4.77554 29.5529 5.03219 29.9772C5.28883 30.4015 5.65677 30.7465 6.0956 30.9741C7.75503 31.839 10.528 33.1953 12.7224 33.802C13.0878 33.9062 13.4791 33.8639 13.8141 33.684L15.4162 32.8383C15.668 32.7067 15.9537 32.6559 16.235 32.6928L21.5627 33.4149C21.6231 33.4236 21.6846 33.4152 21.7405 33.3907C21.7964 33.3661 21.8443 33.3263 21.8789 33.2758C21.9136 33.2253 21.9335 33.166 21.9364 33.1048C21.9394 33.0435 21.9253 32.9826 21.8957 32.929Z" fill="#00CD69"/>
<path d="M6.2037 19.1702H7.94501L9.35607 16.54L8.15244 16.3752L9.06676 12.1992C9.06676 12.1992 2.13427 12.2322 0.185534 15.8755L2.42631 15.6888L1.60751 16.5125L0.0190449 16.6169C0.0190449 16.6169 -0.272993 17.7974 1.43011 18.1599C3.13321 18.5223 6.65949 18.6211 6.65949 18.6211L6.2037 19.1702Z" fill="#00CD69"/>
<path d="M70.5919 16.5726C70.5919 16.5726 65.2288 3.15223 59.9885 0.5C60.771 1.2837 61.5056 2.11439 62.1883 2.98749C47.8744 2.17343 33.5262 2.17343 19.2123 2.98749C19.9709 2.08187 20.8115 1.24913 21.7233 0.5C15.9917 2.58664 10.8906 16.5726 10.8906 16.5726C13.4316 17.1519 40.0944 17.0778 40.7413 17.075C41.3881 17.0723 68.0509 17.1519 70.5919 16.5726Z" fill="#00CD69"/>
<path d="M72.6349 30.6335C72.3747 30.6335 72.1203 30.5559 71.904 30.4105C71.6877 30.2651 71.519 30.0584 71.4195 29.8166C71.3199 29.5748 71.2939 29.3087 71.3446 29.052C71.3954 28.7953 71.5207 28.5595 71.7047 28.3744C71.8886 28.1893 72.123 28.0633 72.3782 28.0122C72.6334 27.9612 72.8979 27.9874 73.1383 28.0875C73.3787 28.1877 73.5841 28.3573 73.7287 28.575C73.8733 28.7926 73.9504 29.0484 73.9504 29.3102C73.9508 29.4841 73.917 29.6563 73.851 29.817C73.785 29.9778 73.6881 30.1238 73.5659 30.2467C73.4437 30.3697 73.2985 30.4672 73.1387 30.5335C72.979 30.5999 72.8077 30.6339 72.6349 30.6335ZM68.6937 31.902C68.4335 31.902 68.1792 31.8244 67.9629 31.679C67.7465 31.5336 67.5779 31.3269 67.4783 31.0851C67.3788 30.8433 67.3527 30.5772 67.4035 30.3205C67.4542 30.0637 67.5795 29.8279 67.7635 29.6429C67.9475 29.4578 68.1819 29.3318 68.4371 29.2807C68.6923 29.2296 68.9568 29.2558 69.1972 29.356C69.4375 29.4562 69.643 29.6258 69.7876 29.8434C69.9321 30.061 70.0093 30.3169 70.0093 30.5786C70.0093 30.9296 69.8707 31.2662 69.624 31.5144C69.3772 31.7626 69.0426 31.902 68.6937 31.902ZM76.2567 25.4417C71.1965 27.1988 64.6543 28.3053 62.5336 28.6375C62.316 28.6712 62.1091 28.7552 61.9291 28.8828C61.7492 29.0105 61.6011 29.1784 61.4965 29.3733L59.586 32.9426C59.5572 32.9966 59.5439 33.0575 59.5474 33.1186C59.551 33.1797 59.5712 33.2387 59.6059 33.2889C59.6407 33.3392 59.6885 33.3789 59.7442 33.4035C59.8 33.4281 59.8614 33.4368 59.9217 33.4285L65.2602 32.6982C65.5416 32.6599 65.8278 32.7107 66.079 32.8437L67.6839 33.6894C68.0188 33.8695 68.4102 33.9119 68.7756 33.8074C70.9591 33.2007 73.7402 31.8443 75.3997 30.9795C75.8366 30.7522 76.203 30.4084 76.4586 29.9856C76.7143 29.5628 76.8493 29.0774 76.8489 28.5826V25.859C76.8488 25.7888 76.832 25.7196 76.8 25.6572C76.7679 25.5948 76.7216 25.541 76.6648 25.5002C76.608 25.4594 76.5423 25.4328 76.4732 25.4226C76.4042 25.4125 76.3337 25.419 76.2676 25.4417H76.2567Z" fill="#00CD69"/>
<path d="M73.5466 19.1702L72.1328 16.54L73.3364 16.3752L72.4249 12.1992C72.4249 12.1992 79.3546 12.2404 81.3061 15.8728L79.0653 15.6861L79.8841 16.5098L81.4616 16.6361C81.4616 16.6361 81.751 17.8029 80.0506 18.1791C78.3502 18.5552 74.8321 18.6211 74.8321 18.6211L75.2879 19.1702H73.5466Z" fill="#00CD69"/>
<path d="M53.8954 36.243L57.8229 29.4258C40.7865 31.7238 23.75 29.4258 23.75 29.4258L27.4428 36.1936C27.6779 36.627 28.0248 36.9886 28.447 37.2404C28.8692 37.4921 29.3511 37.6247 29.8419 37.6241H51.5264C52.0072 37.6242 52.4795 37.4965 52.8955 37.254C53.3115 37.0115 53.6564 36.6628 53.8954 36.243Z" fill="#00CD69"/>
<path d="M22.2664 45.503L18.8302 39.5286L7.48438 38.2656L18.2434 41.0524L17.2663 41.1897L18.5818 44.8797L22.2664 45.503Z" fill="#00CD69"/>
<path d="M59.2266 45.503L62.6655 39.5286L74.0086 38.2656L63.2523 41.0524L64.2294 41.1897L62.9139 44.8797L59.2266 45.503Z" fill="#00CD69"/>
</svg>
