<svg width="41" height="41" viewBox="0 0 41 41" fill="none" xmlns="http://www.w3.org/2000/svg">
<path fillRule="evenodd" clipRule="evenodd" d="M13.2795 17.3084H27.7305C28.4675 17.3082 29.1742 17.0128 29.6951 16.487C30.2161 15.9613 30.5086 15.2484 30.5083 14.5051V6.65872C30.5083 5.91519 30.2158 5.20206 29.6945 4.6763C29.1732 4.15055 28.4661 3.85527 27.7288 3.85547H13.2778C12.5409 3.85563 11.8341 4.15107 11.3132 4.6768C10.7922 5.20252 10.4997 5.91545 10.5 6.65872V14.5068C10.5 15.2501 10.7931 15.9628 11.3144 16.4882C11.8356 17.0136 12.5425 17.3087 13.2795 17.3084Z" stroke="white" strokeWidth="2" strokeLinecap="round" strokeLinejoin="round"/>
<path d="M28.7603 33.9727H27.1749C26.7438 33.9723 26.3177 34.0656 25.9256 34.2462L19.5859 37.1582" stroke="white" strokeWidth="2" strokeLinecap="round" strokeLinejoin="round"/>
<path d="M35.5054 24.1836H31.337C29.9557 24.1836 28.8359 25.3129 28.8359 26.706V33.4325C28.8359 34.8256 29.9557 35.9549 31.337 35.9549H35.5054" stroke="white" strokeWidth="2" strokeLinecap="round" strokeLinejoin="round"/>
<path d="M5.49219 35.9549H9.66059C11.0419 35.9549 12.1616 34.8256 12.1616 33.4325V26.706C12.1616 25.3129 11.0419 24.1836 9.66059 24.1836H5.49219" stroke="white" strokeWidth="2" strokeLinecap="round" strokeLinejoin="round"/>
<path d="M29.5135 24.9017L24.3495 22.6091C23.4207 22.1968 22.3486 22.2837 21.4969 22.8401L17.5638 25.4101C16.9728 25.7964 16.5931 26.4377 16.5361 27.1457C16.4792 27.8537 16.7514 28.5483 17.273 29.0257V29.0257C17.95 29.6441 18.9285 29.7931 19.7564 29.4041L22.1012 28.2993L23.7494 29.808C24.2311 30.2489 24.5194 30.8648 24.5508 31.5201C24.5823 32.1754 24.3544 32.8164 23.9172 33.3022C23.8663 33.3588 23.8128 33.4129 23.7569 33.4646L20.2641 36.6886C19.1162 37.7483 17.3571 37.7523 16.2045 36.6979L14.1049 34.7773C13.588 34.3145 12.9382 34.0302 12.25 33.9657" stroke="white" strokeWidth="2" strokeLinecap="round" strokeLinejoin="round"/>
<path d="M12.1953 25.9548L15.8361 24.6314C16.6735 24.3353 17.5979 24.4288 18.3602 24.8867" stroke="white" strokeWidth="2" strokeLinecap="round" strokeLinejoin="round"/>
<path d="M22.2709 8.79766C23.2479 9.78305 23.2479 11.3807 22.2709 12.366C21.2939 13.3514 19.7098 13.3514 18.7328 12.366C17.7557 11.3807 17.7557 9.78305 18.7328 8.79766C19.2019 8.32445 19.8383 8.05859 20.5018 8.05859C21.1654 8.05859 21.8017 8.32445 22.2709 8.79766" stroke="white" strokeWidth="2" strokeLinecap="round" strokeLinejoin="round"/>
</svg>
