<svg width="41" height="41" viewBox="0 0 41 41" fill="none" xmlns="http://www.w3.org/2000/svg">
<path d="M37.1714 15.5L32.8047 17.1667" stroke="white" strokeWidth="2" strokeLinecap="round" strokeLinejoin="round"/>
<path d="M8.21927 17.1667L3.83594 15.5" stroke="white" strokeWidth="2" strokeLinecap="round" strokeLinejoin="round"/>
<path d="M30.9167 23.8333H26.75" stroke="white" strokeWidth="2" strokeLinecap="round" strokeLinejoin="round"/>
<path d="M14.2526 23.8333H10.0859" stroke="white" strokeWidth="2" strokeLinecap="round" strokeLinejoin="round"/>
<path d="M32.7976 17.168L31.3993 10.4813C30.9943 8.5513 29.2926 7.16797 27.3193 7.16797H13.8526C11.9176 7.16797 10.2359 8.5013 9.79594 10.3863L8.21094 17.168" stroke="white" strokeWidth="2" strokeLinecap="round" strokeLinejoin="round"/>
<path fillRule="evenodd" clipRule="evenodd" d="M5.91927 33.8346H9.66927C11.0493 33.8346 12.1693 32.7146 12.1693 31.3346V29.668H28.8359V31.3346C28.8359 32.7146 29.9559 33.8346 31.3359 33.8346H35.0859C36.2359 33.8346 37.1693 32.9013 37.1693 31.7513V22.168C37.1693 19.4063 34.9309 17.168 32.1693 17.168H8.83594C6.07427 17.168 3.83594 19.4063 3.83594 22.168V31.7513C3.83594 32.9013 4.76927 33.8346 5.91927 33.8346Z" stroke="white" strokeWidth="2" strokeLinecap="round" strokeLinejoin="round"/>
</svg>
