<svg width="41" height="41" viewBox="0 0 41 41" fill="none" xmlns="http://www.w3.org/2000/svg">
<path d="M7.53646 18.6484V35.3151" stroke="white" strokeWidth="2" strokeLinecap="round" strokeLinejoin="round"/>
<path d="M33.4661 18.6484V35.3151" stroke="white" strokeWidth="2" strokeLinecap="round" strokeLinejoin="round"/>
<path d="M24.2035 35.3131V27.9065C24.2035 25.8615 22.5452 24.2031 20.5002 24.2031C18.4552 24.2031 16.7969 25.8615 16.7969 27.9065V35.3131" stroke="white" strokeWidth="2" strokeLinecap="round" strokeLinejoin="round"/>
<path d="M3.83594 35.3177H37.1693" stroke="white" strokeWidth="2" strokeLinecap="round" strokeLinejoin="round"/>
<path fillRule="evenodd" clipRule="evenodd" d="M7.67025 18.6469C4.84025 18.6269 2.99525 15.8253 4.22191 13.4103L7.08025 7.78193C7.73191 6.49859 9.10191 5.68359 10.6052 5.68359H30.3986C31.9019 5.68359 33.2719 6.49859 33.9236 7.78193L36.7836 13.4103C38.0102 15.8253 36.1652 18.6269 33.3352 18.6469C30.9736 18.6469 29.0586 17.0336 29.0586 15.0419V14.9619C29.0586 16.9969 27.1436 18.6469 24.7819 18.6469C22.4202 18.6469 20.5052 16.9969 20.5052 14.9619C20.5052 16.9969 18.5902 18.6469 16.2286 18.6469C13.8669 18.6469 11.9519 16.9969 11.9519 14.9619V15.0419C11.9469 17.0336 10.0319 18.6469 7.67025 18.6469Z" stroke="white" strokeWidth="2" strokeLinecap="round" strokeLinejoin="round"/>
</svg>
