<svg width="80" height="80" viewBox="0 0 80 80" fill="none" xmlns="http://www.w3.org/2000/svg">
<path d="M70 70.0026H10" stroke="#00CD69" strokeWidth="4" strokeLinecap="round" strokeLinejoin="round"/>
<path fillRule="evenodd" clipRule="evenodd" d="M7.69383 21.7025L13.1215 13.1072C14.3429 11.1729 16.4708 9.99999 18.7584 10H61.2366C63.5243 9.99999 65.6522 11.173 66.8736 13.1073L72.301 21.7026C72.9737 22.7679 73.3307 24.002 73.3307 25.262V33.3333C73.3307 35.1743 71.8383 36.6667 69.9974 36.6667H9.9974C8.15645 36.6667 6.66406 35.1743 6.66406 33.3333V25.262C6.66407 24.0021 7.02112 22.7679 7.69383 21.7025Z" stroke="#00CD69" strokeWidth="4" strokeLinecap="round" strokeLinejoin="round"/>
<path d="M33.3359 53.3307H66.6693" stroke="#00CD69" strokeWidth="4" strokeLinecap="round" strokeLinejoin="round"/>
<path d="M13.3308 69.9974L13.3306 36.6641" stroke="#00CD69" strokeWidth="4" strokeLinecap="round" strokeLinejoin="round"/>
<path d="M66.6668 69.9974L66.6665 36.6641" stroke="#00CD69" strokeWidth="4" strokeLinecap="round" strokeLinejoin="round"/>
<path d="M33.3307 69.9974V36.6641" stroke="#00CD69" strokeWidth="4" strokeLinecap="round" strokeLinejoin="round"/>
</svg>
