<svg width="80" height="80" viewBox="0 0 80 80" fill="none" xmlns="http://www.w3.org/2000/svg">
<path fillRule="evenodd" clipRule="evenodd" d="M27.8933 14.0378L14.56 18.4811C11.8367 19.3878 10 21.9378 10 24.8078V61.2745C10 63.7511 12.6067 65.3645 14.8233 64.2545L27.0167 58.1578C28.8933 57.2178 31.1033 57.2178 32.98 58.1578L47.0167 65.1778C48.8933 66.1178 51.1033 66.1178 52.98 65.1778L66.3133 58.5111C68.5733 57.3811 70 55.0711 70 52.5478V17.9578C70 15.6811 67.77 14.0745 65.6133 14.7945L52.11 19.2945C50.74 19.7511 49.2633 19.7511 47.8933 19.2945L32.1067 14.0378C30.74 13.5811 29.26 13.5811 27.8933 14.0378V14.0378Z" stroke="#00CD69" strokeWidth="4" strokeLinecap="round" strokeLinejoin="round"/>
<path d="M50.0026 31.7656V51.5656" stroke="#00CD69" strokeWidth="4" strokeLinecap="round" strokeLinejoin="round"/>
<path d="M30.0026 25.1016V44.9016" stroke="#00CD69" strokeWidth="4" strokeLinecap="round" strokeLinejoin="round"/>
</svg>
