<svg width="80" height="80" viewBox="0 0 80 80" fill="none" xmlns="http://www.w3.org/2000/svg">
<path d="M10.0017 49.9991V46.6657C9.95273 43.9989 10.9906 41.4268 12.8767 39.5407C14.7627 37.6546 17.3348 36.6168 20.0017 36.6657H30.0017C32.6685 36.6168 35.2406 37.6546 37.1267 39.5407C39.0127 41.4268 40.0506 43.9989 40.0017 46.6657V49.9991" stroke="#00CD69" strokeWidth="4" strokeLinecap="round" strokeLinejoin="round"/>
<path d="M53.3359 36.6657H60.0026C62.6695 36.6168 65.2415 37.6546 67.1276 39.5407C69.0137 41.4268 70.0515 43.9989 70.0026 46.6657V49.9991" stroke="#00CD69" strokeWidth="4" strokeLinecap="round" strokeLinejoin="round"/>
<circle cx="24.9974" cy="18.3333" r="8.33333" stroke="#00CD69" strokeWidth="4" strokeLinecap="round" strokeLinejoin="round"/>
<circle cx="56.6667" cy="20.0026" r="6.66667" stroke="#00CD69" strokeWidth="4" strokeLinecap="round" strokeLinejoin="round"/>
<path d="M59.9991 58.3307H51.3594" stroke="#00CD69" strokeWidth="4" strokeLinecap="round" strokeLinejoin="round"/>
<path d="M60.0026 66.8562V58.3359" stroke="#00CD69" strokeWidth="4" strokeLinecap="round" strokeLinejoin="round"/>
<path d="M20 58.4922C23.8614 65.5837 31.2901 69.9973 39.3648 69.9973C47.4394 69.9973 54.8682 65.5837 58.7295 58.4922" stroke="#00CD69" strokeWidth="4" strokeLinecap="round" strokeLinejoin="round"/>
</svg>
