<svg width="16" height="17" viewBox="0 0 16 17" fill="none" xmlns="http://www.w3.org/2000/svg">
<path fillRule="evenodd" clipRule="evenodd" d="M10.8564 5.22314C10.7078 5.37167 10.7103 5.61327 10.8618 5.75877L13.1494 7.94627H2.85061L5.1382 5.75877C5.28973 5.61327 5.29217 5.37167 5.14361 5.22314L4.5303 4.60983C4.38386 4.46339 4.14642 4.46339 3.99995 4.60983L0.109828 8.49361C-0.0366094 8.64005 -0.0366094 8.87748 0.109828 9.02395L3.99998 12.9077C4.14642 13.0541 4.38386 13.0541 4.53033 12.9077L5.14364 12.2944C5.29217 12.1459 5.28973 11.9043 5.13823 11.7588L2.85061 9.57127H13.1494L10.8618 11.7588C10.7102 11.9043 10.7078 12.1459 10.8564 12.2944L11.4697 12.9077C11.6161 13.0541 11.8535 13.0541 12 12.9077L15.8902 9.02392C16.0366 8.87748 16.0366 8.64005 15.8902 8.49358L12 4.60983C11.8535 4.46339 11.6161 4.46339 11.4696 4.60983L10.8564 5.22314Z" fill="white" fill-opacity="0.01"/>
<mask id="mask0_2569_7429" style="mask-type:luminance" maskUnits="userSpaceOnUse" x="0" y="4" width="16" height="10">
<path fillRule="evenodd" clipRule="evenodd" d="M10.8564 5.22314C10.7078 5.37167 10.7103 5.61327 10.8618 5.75877L13.1494 7.94627H2.85061L5.1382 5.75877C5.28973 5.61327 5.29217 5.37167 5.14361 5.22314L4.5303 4.60983C4.38386 4.46339 4.14642 4.46339 3.99995 4.60983L0.109828 8.49361C-0.0366094 8.64005 -0.0366094 8.87748 0.109828 9.02395L3.99998 12.9077C4.14642 13.0541 4.38386 13.0541 4.53033 12.9077L5.14364 12.2944C5.29217 12.1459 5.28973 11.9043 5.13823 11.7588L2.85061 9.57127H13.1494L10.8618 11.7588C10.7102 11.9043 10.7078 12.1459 10.8564 12.2944L11.4697 12.9077C11.6161 13.0541 11.8535 13.0541 12 12.9077L15.8902 9.02392C16.0366 8.87748 16.0366 8.64005 15.8902 8.49358L12 4.60983C11.8535 4.46339 11.6161 4.46339 11.4696 4.60983L10.8564 5.22314Z" fill="white"/>
</mask>
<g mask="url(#mask0_2569_7429)">
<rect y="0.5" width="16" height="16" fill="white"/>
</g>
</svg>
