<svg height="512" viewBox="0 0 60 53" width="512" xmlns="http://www.w3.org/2000/svg">
    <g id="Page-1" fill="none">
        <g id="034---Gallery">
            <g fill="#0041c4">
                <path id="Shape"
                      d="m7 15c.55228475 0 1-.4477153 1-1s-.44771525-1-1-1c-1.65685425 0-3 1.3431458-3 3v30c0 1.6568542 1.34314575 3 3 3h34c.5522847 0 1-.4477153 1-1s-.4477153-1-1-1h-3.337c-7.84-19.062-26.056-21.63-31.663-21.958v-9.042c0-.5522847.44771525-1 1-1zm28.494 32h-28.494c-.55228475 0-1-.4477153-1-1v-18.955c5.331.33 21.972 2.762 29.494 19.955z"/>
                <path id="Shape"
                      d="m47 47c-.5522847 0-1 .4477153-1 1s.4477153 1 1 1c1.6568542 0 3-1.3431458 3-3v-30c0-1.6568542-1.3431458-3-3-3h-34c-.5522847 0-1 .4477153-1 1s.4477153 1 1 1h34c.5522847 0 1 .4477153 1 1v11.041c-5.8387188.3354252-11.5294596 1.9669144-16.659 4.776-.3974632.2220513-.5947636.6845516-.4799739 1.1251275s.5126896.7479999.9679739.7478725c.1698026.0003316.3368306-.0430612.485-.126 4.8311784-2.645586 10.1878633-4.1894833 15.686-4.521v16.957c0 .5522847-.4477153 1-1 1z"/>
                <path id="Shape"
                      d="m53 0h-40c-3.86416566.00440864-6.99559136 3.13583434-7 7v2.08c-3.44092669.49665255-5.99592548 3.4434178-6 6.92v22c0 .5522847.44771525 1 1 1s1-.4477153 1-1v-22c.00330612-2.7600532 2.23994685-4.9966939 5-5h40c2.7600532.0033061 4.9966939 2.2399468 5 5v30c-.0033061 2.7600532-2.2399468 4.9966939-5 5h-40c-2.76005315-.0033061-4.99669388-2.2399468-5-5 0-.5522847-.44771525-1-1-1s-1 .4477153-1 1c.00440864 3.8641657 3.13583434 6.9955914 7 7h40c3.8641657-.0044086 6.9955914-3.1358343 7-7v-2.08c3.4409267-.4966526 5.9959255-3.4434178 6-6.92v-30c-.0044086-3.86416566-3.1358343-6.99559136-7-7zm5 37c-.0029983 2.3751008-1.6735832 4.4215673-4 4.9v-25.9c-.0044086-3.8641657-3.1358343-6.99559136-7-7h-39v-2c.00330612-2.76005315 2.2399468-4.99669388 5-5h40c2.7600532.00330612 4.9966939 2.23994685 5 5z"/>
                <path id="Shape"
                      d="m36 22c0-2.209139-1.790861-4-4-4s-4 1.790861-4 4 1.790861 4 4 4 4-1.790861 4-4zm-6 0c0-1.1045695.8954305-2 2-2s2 .8954305 2 2-.8954305 2-2 2-2-.8954305-2-2z"/>
            </g>
        </g>
    </g>
</svg>